<svg width="472" height="440" viewBox="0 0 472 440" fill="none" xmlns="http://www.w3.org/2000/svg">
<path d="M236 439.93C366.113 439.93 471.59 379.032 471.59 303.91C471.59 228.788 366.113 167.89 236 167.89C105.887 167.89 0.409973 228.788 0.409973 303.91C0.409973 379.032 105.887 439.93 236 439.93Z" fill="#F0F0F0"/>
<path d="M187.25 406.98C232.118 406.98 268.49 385.982 268.49 360.08C268.49 334.178 232.118 313.18 187.25 313.18C142.382 313.18 106.01 334.178 106.01 360.08C106.01 385.982 142.382 406.98 187.25 406.98Z" fill="#E0E0E0"/>
<path d="M418.28 301.4L408.75 295.9C408.75 295.9 406.42 275.5 407.97 259.7C410.15 237.5 424.49 210.78 441.59 217.06C458.69 223.34 433.75 245.94 428.2 264.77C422.65 283.6 418.28 301.4 418.28 301.4Z" fill="#BE16DE"/>
<path opacity="0.15" d="M418.28 301.4L408.75 295.9C408.75 295.9 406.42 275.5 407.97 259.7C410.15 237.5 424.49 210.78 441.59 217.06C458.69 223.34 433.75 245.94 428.2 264.77C422.65 283.6 418.28 301.4 418.28 301.4Z" fill="black"/>
<path d="M413.27 299.09C413.422 299.082 413.565 299.015 413.668 298.903C413.771 298.79 413.825 298.642 413.82 298.49C412.15 249.16 436.71 224.34 436.95 224.1C437.059 223.991 437.12 223.844 437.12 223.69C437.12 223.536 437.059 223.389 436.95 223.28C436.897 223.226 436.834 223.184 436.764 223.155C436.695 223.126 436.62 223.111 436.545 223.111C436.47 223.111 436.395 223.126 436.326 223.155C436.256 223.184 436.193 223.226 436.14 223.28C435.88 223.52 410.97 248.7 412.66 298.53C412.663 298.607 412.68 298.683 412.713 298.753C412.745 298.823 412.791 298.886 412.847 298.938C412.904 298.99 412.971 299.03 413.043 299.057C413.116 299.083 413.193 299.094 413.27 299.09Z" fill="white"/>
<path d="M424.27 304.83L417.49 300.92C417.49 300.92 416.33 286.92 423.2 269.92C429.2 255.12 444 242.83 451.46 245.41C458.92 247.99 458.73 253.28 455.09 258.83C451.45 264.38 429.34 277.59 424.27 304.83Z" fill="#BE16DE"/>
<path d="M420.69 303.35C420.843 303.348 420.989 303.286 421.097 303.177C421.206 303.069 421.267 302.923 421.27 302.77C421.13 271.57 450.42 250.49 450.72 250.28C450.783 250.237 450.836 250.182 450.876 250.118C450.917 250.054 450.944 249.983 450.956 249.908C450.968 249.833 450.965 249.757 450.947 249.683C450.929 249.61 450.896 249.541 450.85 249.48C450.762 249.357 450.628 249.273 450.479 249.247C450.329 249.221 450.175 249.254 450.05 249.34C449.75 249.55 419.98 270.99 420.11 302.77C420.11 302.924 420.171 303.071 420.28 303.18C420.389 303.289 420.536 303.35 420.69 303.35Z" fill="white"/>
<path d="M65.66 289.15L74.46 283.21C74.46 283.21 78.33 260.21 74.73 239.92C69.67 211.46 50 202 43 205C36 208 34.5 216.47 47.57 232.71C55.32 242.26 65.39 262.65 65.66 289.15Z" fill="#BE16DE"/>
<g opacity="0.15">
<path d="M65.66 289.15L74.46 283.21C74.46 283.21 78.33 260.21 74.73 239.92C69.67 211.46 50 202 43 205C36 208 34.5 216.47 47.57 232.71C55.32 242.26 65.39 262.65 65.66 289.15Z" fill="black"/>
</g>
<path d="M68.68 277.75H68.59C68.5001 277.744 68.4124 277.72 68.3327 277.678C68.2529 277.636 68.1829 277.578 68.1272 277.507C68.0715 277.436 68.0314 277.354 68.0095 277.267C67.9876 277.18 67.9843 277.089 68 277C71.18 250.21 59.87 221.13 47.56 209.56C47.4415 209.44 47.3751 209.279 47.3751 209.11C47.3751 208.942 47.4415 208.78 47.56 208.66C47.6186 208.6 47.6886 208.553 47.7659 208.52C47.8432 208.488 47.9262 208.471 48.01 208.471C48.0938 208.471 48.1768 208.488 48.254 208.52C48.3313 208.553 48.4013 208.6 48.46 208.66C61 220.44 72.52 250 69.3 277.18C69.2811 277.333 69.2084 277.475 69.0948 277.579C68.9812 277.683 68.8342 277.744 68.68 277.75Z" fill="white"/>
<path d="M42.62 304.69C41.22 305.53 37.14 302.5 36.01 301.77C34.0734 300.506 32.4958 298.763 31.43 296.71C30.2343 294.382 29.7905 291.741 30.16 289.15C30.3648 287.798 30.6622 286.462 31.05 285.15C31.4 283.84 31.75 282.53 32.05 281.21C32.4935 279.926 32.6638 278.564 32.55 277.21C32.16 274.54 29.75 272.71 27.55 271.14C25.13 269.39 22.55 267.08 22.55 263.86C22.6733 261.33 23.6416 258.915 25.3 257C26.8 255 28.6 253.26 29.95 251.17C31.0056 249.722 31.5444 247.961 31.48 246.17C31.3061 245.066 30.9116 244.008 30.32 243.06C29.14 240.98 27.61 239.06 26.78 236.85C25.95 234.64 26.01 231.8 27.78 230.15C29.19 228.8 31.34 228.58 33.29 228.67C35.1275 228.853 36.9025 229.437 38.49 230.38C43.66 233.13 46.7 239.13 52.17 241.22C54.28 242.02 56.58 242.16 58.77 242.7C60.96 243.24 63.22 244.31 64.27 246.3C66.34 250.25 62.73 255.23 64.21 259.42C65.53 263.14 69.21 264.5 71.29 267.83C72.1342 269.309 72.4845 271.019 72.29 272.71C72.1727 275.566 71.532 278.376 70.4 281C69.098 283.722 67.6285 286.36 66 288.9C66 288.9 42.83 304.56 42.62 304.69Z" fill="#BE16DE"/>
<path d="M56.14 296.4C56.0559 296.399 55.973 296.381 55.8958 296.347C55.8187 296.314 55.7488 296.266 55.6903 296.205C55.6318 296.145 55.5858 296.074 55.5548 295.996C55.5239 295.918 55.5087 295.834 55.51 295.75C56.07 270.43 43.61 242.75 34.79 234.75C34.6646 234.637 34.589 234.479 34.5797 234.31C34.5703 234.142 34.6279 233.976 34.74 233.85C34.7986 233.79 34.8687 233.743 34.9459 233.71C35.0232 233.678 35.1062 233.661 35.19 233.661C35.2738 233.661 35.3568 233.678 35.434 233.71C35.5113 233.743 35.5813 233.79 35.64 233.85C44.64 241.95 57.35 270.11 56.78 295.78C56.7787 295.863 56.7611 295.944 56.7282 296.02C56.6954 296.096 56.6478 296.165 56.5884 296.223C56.529 296.28 56.4588 296.325 56.3818 296.356C56.3049 296.386 56.2227 296.401 56.14 296.4Z" fill="white"/>
<path d="M51.47 265.55C51.4109 265.565 51.3491 265.565 51.29 265.55C43.11 263.19 32.97 262.95 32.87 262.94C32.7864 262.939 32.7039 262.921 32.6273 262.887C32.5507 262.854 32.4815 262.805 32.4238 262.745C32.3661 262.684 32.321 262.613 32.2912 262.535C32.2613 262.457 32.2474 262.374 32.25 262.29C32.2484 262.206 32.2644 262.122 32.2969 262.044C32.3294 261.966 32.3778 261.896 32.4389 261.837C32.5 261.779 32.5725 261.734 32.6519 261.705C32.7313 261.676 32.8158 261.664 32.9 261.67C33 261.67 43.3 261.92 51.64 264.32C51.8012 264.369 51.9367 264.479 52.0172 264.627C52.0977 264.775 52.1167 264.948 52.07 265.11C52.0311 265.238 51.9515 265.351 51.8434 265.43C51.7352 265.509 51.6042 265.551 51.47 265.55Z" fill="white"/>
<path d="M287.16 271.74L283.37 269.55C282.739 269.14 282.213 268.587 281.836 267.935C281.459 267.283 281.241 266.552 281.2 265.8V108.28C281.241 107.53 281.458 106.799 281.833 106.148C282.209 105.496 282.731 104.942 283.36 104.53L388.71 43.7101C389.381 43.37 390.123 43.1929 390.875 43.1929C391.627 43.1929 392.369 43.37 393.04 43.7101L396.83 45.9001C397.461 46.3101 397.987 46.8634 398.364 47.5151C398.741 48.1667 398.959 48.8983 399 49.6501V207.17C398.959 207.921 398.742 208.651 398.367 209.302C397.991 209.954 397.469 210.508 396.84 210.92L291.49 271.75C290.819 272.091 290.076 272.268 289.324 272.266C288.571 272.264 287.83 272.084 287.16 271.74Z" fill="#455A64"/>
<path d="M399 49.3001C398.85 48.1801 397.94 47.7701 396.85 48.4001L291.49 109.23C290.853 109.63 290.327 110.183 289.96 110.84L281.83 106.15C282.194 105.489 282.72 104.931 283.36 104.53L388.71 43.7101C389.381 43.37 390.123 43.1929 390.875 43.1929C391.627 43.1929 392.369 43.37 393.04 43.7101L396.83 45.9001C397.415 46.2769 397.912 46.7759 398.287 47.3627C398.661 47.9495 398.905 48.6104 399 49.3001Z" fill="#455A64"/>
<path d="M291.12 271.92C290.48 272.179 289.792 272.298 289.102 272.269C288.412 272.24 287.736 272.063 287.12 271.75L283.32 269.55C282.692 269.138 282.169 268.584 281.793 267.932C281.418 267.281 281.201 266.551 281.16 265.8V108.28C281.186 107.528 281.403 106.795 281.79 106.15L289.92 110.84C289.525 111.486 289.304 112.223 289.28 112.98V270.5C289.32 271.74 290.1 272.31 291.12 271.92Z" fill="#263238"/>
<path d="M289.32 113V270.5C289.32 271.88 290.32 272.44 291.49 271.75L396.84 210.92C397.469 210.508 397.991 209.954 398.367 209.302C398.742 208.651 398.959 207.921 399 207.17V49.6501C399 48.2701 398 47.7101 396.84 48.4001L291.49 109.23C290.856 109.642 290.329 110.199 289.951 110.854C289.574 111.509 289.358 112.245 289.32 113Z" fill="#37474F"/>
<path d="M264.72 173C263.36 172.19 257.05 168.6 256.72 168.41C256.463 168.257 256.243 168.047 256.078 167.798C255.912 167.548 255.805 167.265 255.764 166.968C255.723 166.672 255.748 166.37 255.839 166.084C255.931 165.799 256.085 165.538 256.29 165.32L281.2 138.6L289.32 143.26L264.42 170C264.224 170.208 264.076 170.456 263.984 170.727C263.892 170.997 263.859 171.284 263.888 171.568C263.916 171.853 264.005 172.127 264.149 172.374C264.292 172.621 264.487 172.835 264.72 173Z" fill="#455A64"/>
<path d="M289.32 143.29L264.42 170C264.143 170.295 263.963 170.667 263.902 171.067C263.842 171.467 263.904 171.876 264.08 172.24C264.257 172.604 264.54 172.906 264.891 173.106C265.243 173.306 265.647 173.395 266.05 173.36L289.32 171.44V143.29Z" fill="#37474F"/>
<path d="M344.16 95.2002C356.44 88.1102 366.39 93.8602 366.39 108.04C366.39 122.22 356.44 139.45 344.16 146.54C331.88 153.63 321.93 147.88 321.93 133.71C321.93 119.54 331.88 102.29 344.16 95.2002Z" fill="#BE16DE"/>
<path d="M344 106.36C348 104.06 351.21 105.92 351.21 110.52C351.074 113.021 350.35 115.454 349.097 117.622C347.844 119.791 346.098 121.633 344 123C340 125.3 336.78 123.44 336.78 118.84C336.917 116.339 337.643 113.905 338.897 111.737C340.152 109.568 341.9 107.726 344 106.36Z" fill="white"/>
<path d="M358.22 130.88C358.22 123.33 352.91 120.26 346.37 124.04L342.28 126.4C335.74 130.18 330.43 139.4 330.43 146.93V149C331.665 149.395 332.954 149.594 334.25 149.59C337.758 149.471 341.175 148.437 344.16 146.59C349.845 143.089 354.654 138.334 358.22 132.69V130.88Z" fill="white"/>
<path d="M330.08 216.73L358.24 200.47C359.44 199.78 360.41 200.34 360.41 201.72V210.79C360.369 211.542 360.151 212.273 359.774 212.925C359.397 213.577 358.871 214.13 358.24 214.54L330.08 230.8C328.88 231.49 327.91 230.93 327.91 229.55V220.48C327.951 219.728 328.169 218.997 328.546 218.345C328.923 217.693 329.449 217.14 330.08 216.73Z" fill="#BE16DE"/>
<path d="M316.29 196.47L372 164.29C373.43 163.46 374.6 164.13 374.6 165.79V169.16C374.551 170.062 374.29 170.939 373.838 171.721C373.387 172.503 372.757 173.168 372 173.66L316.26 205.84C314.83 206.67 313.67 206 313.67 204.34V201C313.716 200.091 313.977 199.206 314.433 198.419C314.888 197.631 315.525 196.963 316.29 196.47Z" fill="#FAFAFA"/>
<path d="M322.81 173.18C323.57 172.74 324.16 172.67 324.58 172.98C325 173.29 325.21 173.98 325.21 175.04C325.231 176.008 325.015 176.966 324.58 177.83C324.187 178.612 323.571 179.259 322.81 179.69L321.31 180.56V183.79C321.307 183.901 321.28 184.011 321.23 184.11C321.195 184.201 321.132 184.278 321.05 184.33L320.29 184.77C320.264 184.79 320.232 184.8 320.2 184.8C320.168 184.8 320.136 184.79 320.11 184.77C320.056 184.702 320.031 184.616 320.04 184.53V175.18C320.039 175.07 320.063 174.96 320.11 174.86C320.148 174.771 320.21 174.695 320.29 174.64L322.81 173.18ZM321.31 178.75L322.76 177.91C323.11 177.713 323.406 177.431 323.62 177.09C323.847 176.689 323.958 176.231 323.94 175.77C323.94 175.23 323.83 174.92 323.62 174.83C323.472 174.794 323.317 174.792 323.168 174.825C323.019 174.858 322.879 174.925 322.76 175.02L321.31 175.86V178.75Z" fill="#FAFAFA"/>
<path d="M329.4 169.37C329.5 169.31 329.58 169.31 329.63 169.37C329.694 169.46 329.738 169.562 329.76 169.67L332.07 177.49C332.07 177.49 332.07 177.55 332.07 177.58C332.068 177.691 332.041 177.801 331.99 177.9C331.955 177.99 331.892 178.067 331.81 178.12L331.13 178.51C331.01 178.58 330.92 178.59 330.87 178.51C330.822 178.46 330.787 178.398 330.77 178.33L330.36 176.96L327.36 178.68L326.96 180.52C326.932 180.62 326.895 180.717 326.85 180.81C326.8 180.932 326.708 181.031 326.59 181.09L325.91 181.48C325.885 181.501 325.853 181.513 325.82 181.513C325.787 181.513 325.755 181.501 325.73 181.48C325.678 181.415 325.653 181.333 325.66 181.25C325.655 181.213 325.655 181.176 325.66 181.14L327.96 170.66C327.988 170.506 328.031 170.355 328.09 170.21C328.139 170.105 328.219 170.017 328.32 169.96L329.4 169.37ZM329.92 175.43L328.92 171.9L327.92 176.62L329.92 175.43Z" fill="#FAFAFA"/>
<path d="M335.57 165.66C335.905 165.449 336.286 165.322 336.68 165.29C336.959 165.265 337.239 165.328 337.48 165.47C337.699 165.612 337.87 165.818 337.97 166.06C338.079 166.306 338.14 166.571 338.15 166.84C338.157 166.951 338.133 167.062 338.08 167.16C338.045 167.251 337.982 167.328 337.9 167.38L337.24 167.76C337.13 167.82 337.05 167.83 337 167.76C336.938 167.719 336.887 167.664 336.85 167.6C336.81 167.51 336.752 167.429 336.68 167.362C336.608 167.295 336.523 167.243 336.43 167.21C336.125 167.166 335.816 167.246 335.57 167.43C335.408 167.535 335.254 167.652 335.11 167.78C334.961 167.917 334.83 168.071 334.72 168.24C334.614 168.403 334.526 168.577 334.46 168.76C334.401 168.934 334.371 169.116 334.37 169.3C334.358 169.468 334.389 169.637 334.46 169.79C334.491 169.844 334.534 169.889 334.586 169.922C334.639 169.955 334.698 169.975 334.76 169.98C334.945 170.012 335.135 170.012 335.32 169.98L336.19 169.79C336.514 169.694 336.852 169.653 337.19 169.67C337.431 169.669 337.666 169.746 337.86 169.89C338.043 170.044 338.176 170.25 338.24 170.48C338.338 170.804 338.382 171.142 338.37 171.48C338.369 171.927 338.305 172.371 338.18 172.8C338.058 173.241 337.88 173.664 337.65 174.06C337.408 174.466 337.119 174.841 336.79 175.18C336.454 175.529 336.07 175.828 335.65 176.07C335.342 176.258 335.004 176.39 334.65 176.46C334.362 176.515 334.065 176.491 333.79 176.39C333.54 176.274 333.333 176.081 333.2 175.84C333.037 175.532 332.948 175.189 332.94 174.84C332.939 174.726 332.963 174.614 333.01 174.51C333.054 174.425 333.12 174.353 333.2 174.3L333.86 173.92C333.96 173.86 334.04 173.84 334.1 173.87C334.16 173.9 334.2 173.95 334.24 174.04C334.281 174.143 334.335 174.24 334.4 174.33C334.462 174.417 334.549 174.483 334.65 174.52C334.782 174.55 334.918 174.55 335.05 174.52C335.262 174.47 335.465 174.386 335.65 174.27C335.844 174.159 336.028 174.032 336.2 173.89C336.536 173.624 336.804 173.281 336.98 172.89C337.06 172.69 337.101 172.476 337.1 172.26C337.109 172.182 337.103 172.102 337.08 172.027C337.058 171.951 337.02 171.881 336.97 171.82C336.916 171.772 336.852 171.737 336.783 171.716C336.714 171.696 336.641 171.69 336.57 171.7C336.343 171.709 336.118 171.746 335.9 171.81C335.64 171.87 335.34 171.94 334.99 172C334.722 172.067 334.445 172.087 334.17 172.06C333.954 172.046 333.749 171.958 333.59 171.81C333.417 171.641 333.296 171.426 333.24 171.19C333.16 170.843 333.123 170.487 333.13 170.13C333.129 169.69 333.193 169.252 333.32 168.83C333.439 168.396 333.614 167.979 333.84 167.59C334.056 167.203 334.318 166.844 334.62 166.52C334.894 166.19 335.214 165.9 335.57 165.66Z" fill="#FAFAFA"/>
<path d="M342.14 161.88C342.472 161.662 342.854 161.532 343.25 161.5C343.529 161.476 343.808 161.539 344.05 161.68C344.264 161.826 344.43 162.031 344.53 162.27C344.639 162.516 344.7 162.781 344.71 163.05C344.722 163.161 344.697 163.274 344.64 163.37C344.605 163.461 344.542 163.538 344.46 163.59L343.8 163.97C343.7 164.03 343.62 164.05 343.56 163.97C343.496 163.93 343.447 163.87 343.42 163.8C343.329 163.625 343.175 163.489 342.99 163.42C342.841 163.398 342.689 163.406 342.543 163.444C342.397 163.482 342.26 163.548 342.14 163.64C341.973 163.742 341.816 163.859 341.67 163.99C341.525 164.127 341.397 164.281 341.29 164.45C341.18 164.611 341.092 164.786 341.03 164.97C340.968 165.143 340.934 165.326 340.93 165.51C340.918 165.678 340.949 165.847 341.02 166C341.051 166.054 341.094 166.099 341.146 166.132C341.199 166.165 341.258 166.185 341.32 166.19C341.505 166.222 341.695 166.222 341.88 166.19L342.75 166C343.075 165.909 343.413 165.869 343.75 165.88C343.991 165.878 344.227 165.955 344.42 166.1C344.603 166.256 344.738 166.461 344.81 166.69C344.898 167.016 344.939 167.353 344.93 167.69C344.929 168.137 344.865 168.581 344.74 169.01C344.618 169.451 344.44 169.874 344.21 170.27C343.969 170.679 343.68 171.059 343.35 171.4C343.012 171.74 342.633 172.036 342.22 172.28C341.912 172.467 341.573 172.599 341.22 172.67C340.936 172.725 340.642 172.7 340.37 172.6C340.115 172.487 339.904 172.294 339.77 172.05C339.606 171.742 339.52 171.399 339.52 171.05C339.508 170.939 339.533 170.826 339.59 170.73C339.625 170.64 339.688 170.563 339.77 170.51L340.43 170.13C340.53 170.07 340.62 170.05 340.67 170.08C340.705 170.096 340.735 170.119 340.76 170.149C340.784 170.178 340.801 170.213 340.81 170.25C340.855 170.351 340.909 170.448 340.97 170.54C341.036 170.628 341.126 170.694 341.23 170.73C341.362 170.76 341.498 170.76 341.63 170.73C341.842 170.68 342.045 170.596 342.23 170.48C342.419 170.367 342.6 170.24 342.77 170.1C342.946 169.963 343.101 169.801 343.23 169.62C343.359 169.447 343.467 169.259 343.55 169.06C343.63 168.86 343.671 168.646 343.67 168.43C343.679 168.352 343.673 168.272 343.65 168.197C343.628 168.121 343.59 168.051 343.54 167.99C343.486 167.942 343.422 167.907 343.353 167.886C343.284 167.866 343.211 167.86 343.14 167.87C342.917 167.884 342.696 167.921 342.48 167.98C342.22 168.04 341.91 168.11 341.57 168.17C341.299 168.237 341.018 168.257 340.74 168.23C340.523 168.219 340.317 168.13 340.16 167.98C339.99 167.81 339.872 167.595 339.82 167.36C339.731 167.017 339.691 166.664 339.7 166.31C339.704 165.867 339.767 165.426 339.89 165C340.014 164.568 340.188 164.151 340.41 163.76C340.626 163.371 340.892 163.011 341.2 162.69C341.469 162.373 341.786 162.099 342.14 161.88Z" fill="#FAFAFA"/>
<path d="M349.43 163.13L348.62 167.92C348.596 168.064 348.556 168.205 348.5 168.34C348.461 168.448 348.387 168.539 348.29 168.6L347.53 169.04C347.43 169.1 347.36 169.1 347.31 169.04C347.243 168.958 347.204 168.856 347.2 168.75L346 160.3C346 160.3 346 160.22 346 160.19C346.003 160.079 346.03 159.969 346.08 159.87C346.118 159.781 346.18 159.705 346.26 159.65L346.95 159.25C347.008 159.227 347.072 159.227 347.13 159.25C347.19 159.25 347.23 159.33 347.25 159.49L348.04 165.18L348.73 160.91C348.748 160.803 348.778 160.699 348.82 160.6C348.86 160.473 348.945 160.366 349.06 160.3L349.83 159.85C349.94 159.79 350.02 159.8 350.07 159.85C350.113 159.914 350.144 159.985 350.16 160.06L350.86 163.53L351.65 156.93C351.659 156.8 351.697 156.674 351.76 156.56C351.807 156.485 351.868 156.421 351.94 156.37L352.63 155.97C352.656 155.95 352.688 155.94 352.72 155.94C352.752 155.94 352.784 155.95 352.81 155.97C352.838 156.003 352.86 156.041 352.874 156.082C352.888 156.123 352.893 156.167 352.89 156.21C352.894 156.25 352.894 156.29 352.89 156.33L351.69 166.16C351.67 166.304 351.633 166.445 351.58 166.58C351.534 166.687 351.458 166.777 351.36 166.84L350.59 167.28C350.5 167.33 350.43 167.33 350.38 167.28C350.329 167.188 350.289 167.091 350.26 166.99L349.43 163.13Z" fill="#FAFAFA"/>
<path d="M354.11 158.89C354.132 158.336 354.199 157.784 354.31 157.24C354.424 156.709 354.599 156.192 354.83 155.7C355.05 155.222 355.333 154.775 355.67 154.37C356.012 153.969 356.421 153.63 356.88 153.37C357.232 153.131 357.645 152.996 358.07 152.98C358.388 152.983 358.692 153.109 358.92 153.33C359.162 153.602 359.337 153.928 359.43 154.28C359.559 154.739 359.63 155.213 359.64 155.69C359.64 155.87 359.64 156.07 359.64 156.29C359.64 156.51 359.64 156.74 359.64 156.98C359.64 157.22 359.64 157.45 359.64 157.67C359.64 157.89 359.64 158.1 359.64 158.29C359.618 158.841 359.551 159.39 359.44 159.93C359.324 160.46 359.154 160.976 358.93 161.47C358.703 161.947 358.417 162.393 358.08 162.8C357.738 163.198 357.333 163.535 356.88 163.8C356.519 164.037 356.101 164.172 355.67 164.19C355.514 164.193 355.359 164.165 355.215 164.106C355.071 164.048 354.94 163.961 354.83 163.85C354.569 163.57 354.389 163.224 354.31 162.85C354.191 162.389 354.124 161.916 354.11 161.44C354.11 161.26 354.11 161.06 354.11 160.84C354.11 160.62 354.11 160.39 354.11 160.15C354.11 159.91 354.11 159.69 354.11 159.46C354.11 159.23 354.1 159.07 354.11 158.89ZM358.37 156.5C358.392 156.255 358.365 156.009 358.289 155.775C358.213 155.541 358.091 155.325 357.93 155.14C357.67 154.91 357.31 154.92 356.88 155.14C356.413 155.414 356.043 155.827 355.82 156.32C355.536 156.903 355.386 157.542 355.38 158.19C355.38 158.56 355.38 158.97 355.38 159.42C355.38 159.87 355.38 160.27 355.38 160.63C355.358 160.875 355.385 161.121 355.461 161.355C355.537 161.589 355.659 161.805 355.82 161.99C356.08 162.21 356.44 162.19 356.88 161.94C357.339 161.664 357.705 161.256 357.93 160.77C358.214 160.191 358.364 159.555 358.37 158.91C358.37 158.53 358.37 158.12 358.37 157.67C358.37 157.22 358.38 156.86 358.37 156.5Z" fill="#FAFAFA"/>
<path d="M364 149.38C364.79 148.93 365.38 148.86 365.79 149.19C366.033 149.458 366.214 149.776 366.319 150.122C366.425 150.467 366.452 150.832 366.4 151.19C366.408 151.869 366.303 152.545 366.09 153.19C365.887 153.791 365.571 154.347 365.16 154.83L366.46 157.66C366.464 157.707 366.464 157.753 366.46 157.8C366.46 157.89 366.44 157.979 366.4 158.06C366.372 158.133 366.324 158.195 366.26 158.24L365.46 158.7C365.33 158.77 365.24 158.78 365.18 158.7C365.127 158.648 365.083 158.587 365.05 158.52L363.82 155.85L362.57 156.57V159.95C362.571 160.061 362.547 160.17 362.5 160.27C362.459 160.357 362.397 160.432 362.32 160.49L361.56 160.93C361.535 160.951 361.503 160.963 361.47 160.963C361.437 160.963 361.405 160.951 361.38 160.93C361.351 160.899 361.329 160.863 361.316 160.823C361.302 160.784 361.297 160.742 361.3 160.7V151.35C361.303 151.239 361.33 151.13 361.38 151.03C361.415 150.939 361.478 150.862 361.56 150.81L364 149.38ZM362.59 154.76L364 154C364.345 153.808 364.639 153.537 364.86 153.21C365.092 152.825 365.203 152.379 365.18 151.93C365.18 151.39 365.07 151.09 364.86 151.03C364.556 150.989 364.247 151.068 364 151.25L362.64 152.03L362.59 154.76Z" fill="#FAFAFA"/>
<path d="M370.7 145.53C371.063 145.293 371.478 145.149 371.91 145.11C372.223 145.099 372.528 145.21 372.76 145.42C373.025 145.699 373.208 146.045 373.29 146.42C373.424 146.916 373.498 147.426 373.51 147.94C373.51 148.64 373.51 149.36 373.51 150.09C373.49 150.686 373.416 151.278 373.29 151.86C373.176 152.401 373.001 152.928 372.77 153.43C372.547 153.892 372.264 154.322 371.93 154.71C371.596 155.108 371.197 155.446 370.75 155.71L368.38 157C368.355 157.021 368.323 157.033 368.29 157.033C368.257 157.033 368.225 157.021 368.2 157C368.171 156.97 368.148 156.934 368.135 156.894C368.121 156.854 368.116 156.812 368.12 156.77V147.42C368.123 147.309 368.15 147.2 368.2 147.1C368.235 147.01 368.298 146.933 368.38 146.88L370.7 145.53ZM372.24 148.64C372.236 148.369 372.195 148.1 372.12 147.84C372.073 147.643 371.973 147.463 371.83 147.32C371.767 147.257 371.692 147.208 371.61 147.175C371.527 147.143 371.439 147.127 371.35 147.13C371.1 147.147 370.858 147.23 370.65 147.37L369.39 148.09V154.61L370.7 153.86C370.953 153.713 371.18 153.523 371.37 153.3C371.556 153.081 371.714 152.839 371.84 152.58C371.965 152.305 372.059 152.016 372.12 151.72C372.19 151.411 372.23 151.097 372.24 150.78C372.27 150.05 372.27 149.34 372.24 148.64Z" fill="#FAFAFA"/>
<path d="M233.38 0.39012C235.106 0.774199 236.769 1.4004 238.32 2.25012C239.805 3.0484 241.136 4.10492 242.25 5.37012C243.316 6.58718 244.107 8.0197 244.57 9.57012C245.042 11.2297 245.076 12.9832 244.67 14.6601C244.402 15.9896 243.875 17.2535 243.12 18.3801C242.431 19.3435 241.609 20.2052 240.68 20.9401C239.767 21.6486 238.794 22.2745 237.77 22.8101L234.89 24.3401C234.022 24.7926 233.199 25.3249 232.43 25.9301C231.734 26.4637 231.201 27.1805 230.89 28.0001C230.738 28.3746 230.485 28.6998 230.16 28.9401C230.006 29.0596 229.827 29.1424 229.637 29.1823C229.446 29.2222 229.249 29.218 229.06 29.1701L224.82 28.2301C224.616 28.1873 224.422 28.1042 224.251 27.9858C224.079 27.8673 223.933 27.7158 223.82 27.5401C223.7 27.3768 223.621 27.1876 223.588 26.9878C223.555 26.788 223.569 26.5833 223.63 26.3901C223.971 25.077 224.573 23.8459 225.4 22.7701C226.154 21.8185 227.028 20.9681 228 20.2401C228.947 19.547 229.95 18.9349 231 18.4101C232 17.9001 233 17.4101 233.87 16.9201C234.679 16.4851 235.44 15.9656 236.14 15.3701C236.754 14.8561 237.18 14.1525 237.35 13.3701C237.509 12.6907 237.501 11.9829 237.327 11.3072C237.153 10.6315 236.818 10.008 236.35 9.49012C235.181 8.21342 233.618 7.36499 231.91 7.08012C228.75 6.38012 226.083 7.44345 223.91 10.2701C223.7 10.5787 223.436 10.8464 223.13 11.0601C222.785 11.2312 222.386 11.26 222.02 11.1401L217.51 10.1401C217.188 10.078 216.904 9.89102 216.72 9.62012C216.622 9.47538 216.555 9.31117 216.526 9.13862C216.497 8.96608 216.505 8.78924 216.55 8.62012C216.933 7.23057 217.647 5.9543 218.63 4.90012C219.739 3.67758 221.056 2.66178 222.52 1.90012C224.121 1.06252 225.846 0.488487 227.63 0.200121C229.541 -0.110689 231.494 -0.0461544 233.38 0.39012ZM228.59 32.5701C228.987 32.6633 229.331 32.9079 229.55 33.2518C229.769 33.5956 229.844 34.0114 229.76 34.4101L228.68 39.3101C228.643 39.5153 228.564 39.7104 228.447 39.8827C228.33 40.0551 228.177 40.2007 228 40.3101C227.833 40.4255 227.643 40.5047 227.443 40.5426C227.244 40.5805 227.038 40.5762 226.84 40.5301L222 39.4201C221.794 39.3854 221.598 39.3067 221.426 39.1893C221.253 39.072 221.108 38.9188 221 38.7401C220.888 38.5712 220.812 38.3812 220.775 38.1818C220.739 37.9823 220.744 37.7776 220.79 37.5801L221.88 32.6801C221.973 32.2829 222.217 31.9376 222.561 31.7173C222.904 31.4971 223.32 31.4192 223.72 31.5001L228.59 32.5701Z" fill="#BE16DE"/>
<path d="M238.72 47.3001C239.924 47.107 241.149 47.0834 242.36 47.2301C243.516 47.3676 244.64 47.706 245.68 48.2301C246.67 48.7439 247.542 49.4593 248.24 50.3301C248.867 51.1824 249.309 52.1567 249.536 53.1902C249.763 54.2237 249.772 55.2933 249.56 56.3301C249.369 57.1273 249.063 57.8921 248.65 58.6001C248.252 59.2888 247.79 59.9384 247.27 60.5401C246.76 61.1401 246.27 61.7101 245.82 62.2601C245.38 62.7725 244.988 63.3249 244.65 63.9101C244.333 64.423 244.173 65.0175 244.19 65.6201C244.181 65.9018 244.102 66.1768 243.96 66.4201C243.888 66.5323 243.792 66.6277 243.68 66.7001C243.568 66.7725 243.442 66.8203 243.31 66.8401L240.31 67.3201C240.17 67.3456 240.026 67.3428 239.887 67.3118C239.748 67.2809 239.616 67.2225 239.5 67.1401C239.382 67.0659 239.283 66.9646 239.212 66.8446C239.141 66.7246 239.099 66.5894 239.09 66.4501C238.964 65.5196 239.032 64.5731 239.29 63.6701C239.525 62.8707 239.861 62.1046 240.29 61.3901C240.711 60.7045 241.193 60.0585 241.73 59.4601C242.26 58.8601 242.73 58.3001 243.19 57.7601C243.601 57.2779 243.956 56.7513 244.25 56.1901C244.51 55.7071 244.605 55.1521 244.52 54.6101C244.445 54.1331 244.256 53.6812 243.968 53.293C243.681 52.9047 243.304 52.5916 242.87 52.3801C241.795 51.8608 240.578 51.7131 239.41 51.9601C238.352 52.1148 237.369 52.5928 236.593 53.3286C235.818 54.0644 235.29 55.022 235.08 56.0701C235.021 56.3222 234.92 56.5624 234.78 56.7801C234.602 56.9699 234.36 57.0874 234.1 57.1101L230.94 57.6201C230.718 57.6626 230.488 57.6159 230.3 57.4901C230.204 57.424 230.123 57.338 230.062 57.238C230.002 57.1379 229.964 57.0262 229.95 56.9101C229.856 55.9178 230.011 54.9177 230.4 54.0001C230.795 52.9324 231.378 51.9436 232.12 51.0801C232.933 50.1346 233.892 49.3245 234.96 48.6801C236.112 47.9813 237.389 47.5127 238.72 47.3001ZM243.88 69.1501C244.018 69.1283 244.158 69.1338 244.294 69.1664C244.43 69.199 244.557 69.2581 244.67 69.3401C244.788 69.4176 244.888 69.5191 244.964 69.6381C245.04 69.757 245.089 69.8906 245.11 70.0301L245.67 73.4601C245.713 73.7384 245.645 74.0225 245.481 74.2509C245.316 74.4792 245.068 74.6335 244.79 74.6801L241.44 75.2301C241.162 75.2731 240.878 75.2049 240.65 75.0401C240.534 74.9616 240.436 74.8597 240.362 74.7408C240.288 74.6219 240.239 74.4888 240.22 74.3501L239.66 70.9201C239.635 70.7825 239.638 70.641 239.671 70.505C239.704 70.3689 239.765 70.2412 239.85 70.1301C239.929 70.0141 240.031 69.9159 240.149 69.8418C240.268 69.7678 240.401 69.7195 240.54 69.7001L243.88 69.1501Z" fill="#BE16DE"/>
<g opacity="0.2">
<path d="M238.72 47.3001C239.924 47.107 241.149 47.0834 242.36 47.2301C243.516 47.3676 244.64 47.706 245.68 48.2301C246.67 48.7439 247.542 49.4593 248.24 50.3301C248.867 51.1824 249.309 52.1567 249.536 53.1902C249.763 54.2237 249.772 55.2933 249.56 56.3301C249.369 57.1273 249.063 57.8921 248.65 58.6001C248.252 59.2888 247.79 59.9384 247.27 60.5401C246.76 61.1401 246.27 61.7101 245.82 62.2601C245.38 62.7725 244.988 63.3249 244.65 63.9101C244.333 64.423 244.173 65.0175 244.19 65.6201C244.181 65.9018 244.102 66.1768 243.96 66.4201C243.888 66.5323 243.792 66.6277 243.68 66.7001C243.568 66.7725 243.442 66.8203 243.31 66.8401L240.31 67.3201C240.17 67.3456 240.026 67.3428 239.887 67.3118C239.748 67.2809 239.616 67.2225 239.5 67.1401C239.382 67.0659 239.283 66.9646 239.212 66.8446C239.141 66.7246 239.099 66.5894 239.09 66.4501C238.964 65.5196 239.032 64.5731 239.29 63.6701C239.525 62.8707 239.861 62.1046 240.29 61.3901C240.711 60.7045 241.193 60.0585 241.73 59.4601C242.26 58.8601 242.73 58.3001 243.19 57.7601C243.601 57.2779 243.956 56.7513 244.25 56.1901C244.51 55.7071 244.605 55.1521 244.52 54.6101C244.445 54.1331 244.256 53.6812 243.968 53.293C243.681 52.9047 243.304 52.5916 242.87 52.3801C241.795 51.8608 240.578 51.7131 239.41 51.9601C238.352 52.1148 237.369 52.5928 236.593 53.3286C235.818 54.0644 235.29 55.022 235.08 56.0701C235.021 56.3222 234.92 56.5624 234.78 56.7801C234.602 56.9699 234.36 57.0874 234.1 57.1101L230.94 57.6201C230.718 57.6626 230.488 57.6159 230.3 57.4901C230.204 57.424 230.123 57.338 230.062 57.238C230.002 57.1379 229.964 57.0262 229.95 56.9101C229.856 55.9178 230.011 54.9177 230.4 54.0001C230.795 52.9324 231.378 51.9436 232.12 51.0801C232.933 50.1346 233.892 49.3245 234.96 48.6801C236.112 47.9813 237.389 47.5127 238.72 47.3001ZM243.88 69.1501C244.018 69.1283 244.158 69.1338 244.294 69.1664C244.43 69.199 244.557 69.2581 244.67 69.3401C244.788 69.4176 244.888 69.5191 244.964 69.6381C245.04 69.757 245.089 69.8906 245.11 70.0301L245.67 73.4601C245.713 73.7384 245.645 74.0225 245.481 74.2509C245.316 74.4792 245.068 74.6335 244.79 74.6801L241.44 75.2301C241.162 75.2731 240.878 75.2049 240.65 75.0401C240.534 74.9616 240.436 74.8597 240.362 74.7408C240.288 74.6219 240.239 74.4888 240.22 74.3501L239.66 70.9201C239.635 70.7825 239.638 70.641 239.671 70.505C239.704 70.3689 239.765 70.2412 239.85 70.1301C239.929 70.0141 240.031 69.9159 240.149 69.8418C240.268 69.7678 240.401 69.7195 240.54 69.7001L243.88 69.1501Z" fill="black"/>
</g>
<path d="M267 52.6901C267.136 52.7849 267.252 52.9065 267.34 53.0475C267.427 53.1885 267.485 53.3459 267.51 53.5101C267.542 53.6728 267.54 53.8403 267.503 54.0021C267.467 54.1639 267.398 54.3164 267.3 54.4501L264.92 57.8001C264.825 57.9364 264.704 58.052 264.563 58.1397C264.422 58.2274 264.264 58.2854 264.1 58.3101C263.937 58.3419 263.77 58.3397 263.608 58.3035C263.446 58.2674 263.294 58.1981 263.16 58.1001L259.88 55.7701C259.743 55.6766 259.628 55.5551 259.542 55.4138C259.456 55.2724 259.401 55.1144 259.38 54.9501C259.348 54.7874 259.35 54.6199 259.387 54.4581C259.423 54.2963 259.492 54.1438 259.59 54.0101L262 50.6601C262.195 50.3886 262.489 50.2048 262.818 50.1486C263.148 50.0925 263.486 50.1685 263.76 50.3601L267 52.6901ZM280.84 30.0001C282.036 30.8383 283.101 31.8493 284 33.0001C284.877 34.0706 285.554 35.29 286 36.6001C286.415 37.8556 286.555 39.1857 286.41 40.5001C286.241 41.9017 285.71 43.2353 284.87 44.3701C284.246 45.2877 283.443 46.0699 282.51 46.6701C281.689 47.1851 280.796 47.576 279.86 47.8301C278.949 48.0683 278.019 48.2289 277.08 48.3101L274.42 48.5501C273.622 48.6138 272.832 48.7511 272.06 48.9601C271.348 49.1219 270.696 49.4825 270.18 50.0001C269.947 50.2366 269.653 50.4029 269.33 50.4801C269.177 50.5241 269.015 50.5308 268.858 50.4994C268.702 50.4681 268.555 50.3998 268.43 50.3001L265.53 48.2401C265.253 48.0422 265.063 47.7448 265 47.4101C264.963 47.2479 264.964 47.0792 265.004 46.9176C265.044 46.7561 265.121 46.6062 265.23 46.4801C265.907 45.6011 266.754 44.8666 267.72 44.3201C268.59 43.8452 269.518 43.4855 270.48 43.2501C271.409 43.0247 272.356 42.8808 273.31 42.8201C274.25 42.7601 275.13 42.6901 275.95 42.6101C276.7 42.5438 277.441 42.3963 278.16 42.1701C278.788 41.9608 279.33 41.5494 279.7 41.0001C280.034 40.5363 280.252 39.9985 280.333 39.4327C280.415 38.8669 280.359 38.2896 280.17 37.7501C279.697 36.4173 278.793 35.2805 277.6 34.5201C275.44 32.9801 273.083 32.9301 270.53 34.3701C270.273 34.5337 269.988 34.6489 269.69 34.7101C269.535 34.7209 269.379 34.7009 269.231 34.6511C269.083 34.6013 268.947 34.5228 268.83 34.4201L265.75 32.2301C265.639 32.1561 265.543 32.0604 265.469 31.9487C265.395 31.8371 265.345 31.7117 265.32 31.5801C265.296 31.444 265.301 31.3044 265.333 31.1702C265.366 31.0359 265.426 30.9099 265.51 30.8001C266.237 29.869 267.181 29.1307 268.26 28.6501C269.486 28.0948 270.799 27.7565 272.14 27.6501C273.616 27.5268 275.102 27.645 276.54 28.0001C278.092 28.3741 279.554 29.054 280.84 30.0001Z" fill="#BE16DE"/>
<g opacity="0.6">
<path d="M267 52.6901C267.136 52.7849 267.252 52.9065 267.34 53.0475C267.427 53.1885 267.485 53.3459 267.51 53.5101C267.542 53.6728 267.54 53.8403 267.503 54.0021C267.467 54.1639 267.398 54.3164 267.3 54.4501L264.92 57.8001C264.825 57.9364 264.704 58.052 264.563 58.1397C264.422 58.2274 264.264 58.2854 264.1 58.3101C263.937 58.3419 263.77 58.3397 263.608 58.3035C263.446 58.2674 263.294 58.1981 263.16 58.1001L259.88 55.7701C259.743 55.6766 259.628 55.5551 259.542 55.4138C259.456 55.2724 259.401 55.1144 259.38 54.9501C259.348 54.7874 259.35 54.6199 259.387 54.4581C259.423 54.2963 259.492 54.1438 259.59 54.0101L262 50.6601C262.195 50.3886 262.489 50.2048 262.818 50.1486C263.148 50.0925 263.486 50.1685 263.76 50.3601L267 52.6901ZM280.84 30.0001C282.036 30.8383 283.101 31.8493 284 33.0001C284.877 34.0706 285.554 35.29 286 36.6001C286.415 37.8556 286.555 39.1857 286.41 40.5001C286.241 41.9017 285.71 43.2353 284.87 44.3701C284.246 45.2877 283.443 46.0699 282.51 46.6701C281.689 47.1851 280.796 47.576 279.86 47.8301C278.949 48.0683 278.019 48.2289 277.08 48.3101L274.42 48.5501C273.622 48.6138 272.832 48.7511 272.06 48.9601C271.348 49.1219 270.696 49.4825 270.18 50.0001C269.947 50.2366 269.653 50.4029 269.33 50.4801C269.177 50.5241 269.015 50.5308 268.858 50.4994C268.702 50.4681 268.555 50.3998 268.43 50.3001L265.53 48.2401C265.253 48.0422 265.063 47.7448 265 47.4101C264.963 47.2479 264.964 47.0792 265.004 46.9176C265.044 46.7561 265.121 46.6062 265.23 46.4801C265.907 45.6011 266.754 44.8666 267.72 44.3201C268.59 43.8452 269.518 43.4855 270.48 43.2501C271.409 43.0247 272.356 42.8808 273.31 42.8201C274.25 42.7601 275.13 42.6901 275.95 42.6101C276.7 42.5438 277.441 42.3963 278.16 42.1701C278.788 41.9608 279.33 41.5494 279.7 41.0001C280.034 40.5363 280.252 39.9985 280.333 39.4327C280.415 38.8669 280.359 38.2896 280.17 37.7501C279.697 36.4173 278.793 35.2805 277.6 34.5201C275.44 32.9801 273.083 32.9301 270.53 34.3701C270.273 34.5337 269.988 34.6489 269.69 34.7101C269.535 34.7209 269.379 34.7009 269.231 34.6511C269.083 34.6013 268.947 34.5228 268.83 34.4201L265.75 32.2301C265.639 32.1561 265.543 32.0604 265.469 31.9487C265.395 31.8371 265.345 31.7117 265.32 31.5801C265.296 31.444 265.301 31.3044 265.333 31.1702C265.366 31.0359 265.426 30.9099 265.51 30.8001C266.237 29.869 267.181 29.1307 268.26 28.6501C269.486 28.0948 270.799 27.7565 272.14 27.6501C273.616 27.5268 275.102 27.645 276.54 28.0001C278.092 28.3741 279.554 29.054 280.84 30.0001Z" fill="white"/>
</g>
<path d="M192.53 141.21H157V55.1302C157 47.6537 159.97 40.4835 165.257 35.1968C170.543 29.9102 177.714 26.9402 185.19 26.9402H188.47C195.946 26.9402 203.117 29.9102 208.403 35.1968C213.69 40.4835 216.66 47.6537 216.66 55.1302V117.13C216.647 123.521 214.099 129.646 209.575 134.16C205.051 138.675 198.921 141.21 192.53 141.21Z" fill="#263238"/>
<path d="M153.54 348.44C152.912 352.007 152.577 355.619 152.54 359.24C152.41 365.8 151.21 368.13 151.05 373.51C150.86 379.66 151.93 381.96 154.42 385.42C156.91 388.88 163.42 392.01 166.24 386.17C169.06 380.33 168.65 376.5 167.76 370.47C166.85 364.23 166.76 360.78 166.2 356.03C165.74 351.84 165.2 348.65 165.2 348.65L153.54 348.44Z" fill="#263238"/>
<path d="M172.16 304.87L150.56 304.48C150.88 318.9 153.17 334.91 153.56 348.48C153.64 351.03 153.5 368.27 154.46 373.48C155.91 381.36 165.25 380.29 165.75 375.58C166.25 370.87 165.15 350.74 165.18 348.66C165.09 339.98 169.18 325.33 171.29 309.75C171.38 309 172.06 305.62 172.16 304.87Z" fill="#FFA8A7"/>
<path d="M199.91 337.22C199.91 337.22 199.06 336.76 198.91 337.67C198.7 338.75 198.38 340.98 197.91 342.76C197.29 345.23 196.77 349.3 197.14 351.32C197.51 353.34 202.21 355.92 205.26 356.86C209.019 358.02 212.447 360.06 215.26 362.81C218.26 365.65 224.79 368.33 229.26 368.3C234.51 368.3 238.17 366.55 239.9 363.74C241.63 360.93 238.32 360.59 232.32 356.74L227.67 353.74C218.16 347.53 214.67 344.21 212 338L199.91 337.22Z" fill="#263238"/>
<path d="M212.08 333.37C211.92 328.91 215 291 215 291L194.49 300.35C198.88 326.57 199.82 332.76 199.89 337.05C199.8 337.409 199.763 337.78 199.78 338.15C199.78 343.24 205.55 345.99 210.03 349.39C213.838 352.373 217.897 355.023 222.16 357.31C225.42 358.94 232.04 359.09 232.86 357C227.4 352.83 219.46 346.59 215.12 341.83C213 339.59 212.24 337.84 212.08 333.37Z" fill="#FFA8A7"/>
<path d="M159.41 164.16C151.53 181.45 151.53 194.83 152.84 216.9C154 237.15 155.93 255 155.93 255C155.63 258.59 150.64 265.6 149.99 281.48C149.39 296.32 150.99 315.19 150.99 315.19C150.99 315.19 162.2 321.4 170.49 315.13C170.49 315.13 178.49 276.94 180.83 258.36C182.83 242.15 186.43 221.44 186.43 221.44L194 258.25C192.366 263.473 191.182 268.826 190.46 274.25C189.4 285.18 195.52 306.64 195.52 306.64C195.52 306.64 207.1 310.09 214.17 303.82C214.17 303.82 216.81 268.93 217.8 255.77C219.12 238.14 216.34 190.42 214.17 165.15L159.41 164.16Z" fill="#455A64"/>
<path d="M186.45 221.41L189.56 193.67C189.56 193.67 203.5 191.81 209.82 185.87C208.011 188.7 205.601 191.097 202.762 192.891C199.922 194.685 196.723 195.832 193.39 196.25L188.89 222.06L194 258.25L186.45 221.41Z" fill="#263238"/>
<path d="M242.9 157.34C243.476 152.278 243.73 147.184 243.66 142.09C243.35 137.69 242.56 136.97 236.41 129.18C228.11 118.65 221.02 109.18 213.52 99.7702C208.16 93.0502 202.52 92.0202 197.04 92.3202C193.2 92.5302 200.7 111 204.47 121.93L226 145.11C226.667 146.025 226.973 147.154 226.86 148.28L225.56 168L232.01 176.64C232.01 176.64 241.78 168.22 242.9 157.34Z" fill="#FFA8A7"/>
<path d="M176.28 92.9202C172.11 93.2102 164.53 93.9202 164.53 93.9202C160.16 96.3602 159.05 98.3702 158.24 104.17C157.89 106.65 159.91 113.24 161.64 122.61L164.92 139.98L164.56 148.6C162.86 153.86 159.01 160.39 155.61 170.02C172.31 179.34 186.31 179.69 199.01 178.02C208.69 176.77 213.82 174.43 215.53 172.11C215.17 162.6 214.53 156.72 214.33 146.78C214.26 142.61 214.51 138.39 214.68 133.59C221.17 128.25 221.25 119.37 217.68 113.59C209.45 100.26 201.44 91.8702 196.14 92.3002L176.28 92.9202Z" fill="#BE16DE"/>
<path opacity="0.6" d="M176.28 92.9202C172.11 93.2102 164.53 93.9202 164.53 93.9202C160.16 96.3602 159.05 98.3702 158.24 104.17C157.89 106.65 159.91 113.24 161.64 122.61L164.92 139.98L164.56 148.6C162.86 153.86 159.01 160.39 155.61 170.02C172.31 179.34 186.31 179.69 199.01 178.02C208.69 176.77 213.82 174.43 215.53 172.11C215.17 162.6 214.53 156.72 214.33 146.78C214.26 142.61 214.51 138.39 214.68 133.59C221.17 128.25 221.25 119.37 217.68 113.59C209.45 100.26 201.44 91.8702 196.14 92.3002L176.28 92.9202Z" fill="white"/>
<path opacity="0.1" d="M201.75 133.72C201.75 133.72 194.13 139.64 185.42 136.55C182.974 135.779 180.769 134.391 179.017 132.518C177.265 130.645 176.026 128.352 175.42 125.86C175.42 125.86 174.5 135.81 185.47 139.2C196.1 142.47 201.75 133.72 201.75 133.72Z" fill="black"/>
<path d="M212.09 65.61C211.76 80.05 207.09 83.61 204.73 84.61C202.37 85.61 197.85 85.01 193.45 84.28V93C193.45 93 198.53 98.32 198.15 102.29C197.77 106.26 190.15 106.71 184.47 102.82C181.336 100.667 178.501 98.1082 176.04 95.21C175.567 94.6508 175.309 93.9421 175.31 93.21V72.81C175.31 72.81 172.9 75.36 168.64 72.44C167.721 71.8534 166.934 71.0819 166.329 70.1747C165.724 69.2674 165.314 68.2443 165.126 67.1702C164.938 66.0961 164.976 64.9947 165.236 63.9359C165.497 62.877 165.975 61.884 166.64 61.02C168.5 58.83 173.22 58.68 175.48 62.02C176.76 64.51 176.93 67.02 178.36 66.02C182.16 63.28 180.12 57.02 184.71 54.02C186.216 53.2338 187.781 52.5652 189.39 52.02C197.58 49.19 204.68 46.81 206.39 41.21C209.61 43.05 212.49 48.58 212.09 65.61Z" fill="#FFA8A7"/>
<path d="M195.94 78.51C196.989 78.51 197.84 77.6593 197.84 76.61C197.84 75.5606 196.989 74.71 195.94 74.71C194.891 74.71 194.04 75.5606 194.04 76.61C194.04 77.6593 194.891 78.51 195.94 78.51Z" fill="#B16668"/>
<path d="M194.68 63.42C194.68 63.8112 194.564 64.1936 194.349 64.52C194.133 64.8464 193.826 65.1024 193.467 65.2563C193.107 65.4101 192.71 65.4552 192.325 65.3857C191.94 65.3163 191.584 65.1356 191.301 64.8658C191.017 64.596 190.82 64.249 190.731 63.8679C190.643 63.4867 190.669 63.0881 190.805 62.7214C190.941 62.3546 191.182 62.0359 191.497 61.8046C191.813 61.5733 192.189 61.4395 192.58 61.42C192.851 61.4064 193.122 61.4481 193.376 61.5425C193.63 61.637 193.863 61.7821 194.059 61.9692C194.256 62.1563 194.412 62.3814 194.519 62.6308C194.626 62.8802 194.68 63.1487 194.68 63.42Z" fill="#263238"/>
<path d="M209.83 63.6201C209.85 63.8648 209.822 64.111 209.746 64.3446C209.671 64.5782 209.549 64.7943 209.389 64.9805C209.229 65.1666 209.033 65.3191 208.814 65.4289C208.594 65.5387 208.355 65.6037 208.11 65.6201C207.863 65.6429 207.614 65.6129 207.379 65.532C207.144 65.4512 206.93 65.3213 206.749 65.1511C206.568 64.9808 206.426 64.7741 206.331 64.5446C206.237 64.3151 206.192 64.0682 206.2 63.8201C206.174 63.5736 206.199 63.3245 206.273 63.0879C206.347 62.8514 206.468 62.6324 206.63 62.4444C206.791 62.2565 206.989 62.1035 207.212 61.9948C207.435 61.8862 207.677 61.8241 207.925 61.8125C208.173 61.8009 208.42 61.84 208.652 61.9274C208.884 62.0148 209.095 62.1486 209.274 62.3206C209.452 62.4927 209.593 62.6993 209.689 62.9279C209.785 63.1565 209.833 63.4023 209.83 63.6501V63.6201Z" fill="#263238"/>
<path d="M192.11 68.5601C190.385 68.5601 188.731 67.8756 187.51 66.6569C186.29 65.4382 185.603 63.785 185.6 62.0601C185.6 57.6401 190.16 57.6401 192.11 57.6401C194.06 57.6401 198.61 57.6401 198.61 62.0601C198.607 63.7832 197.922 65.435 196.703 66.6534C195.485 67.8718 193.833 68.5575 192.11 68.5601ZM192.11 58.6601C188.11 58.6601 186.63 59.6601 186.63 62.0601C186.63 63.5188 187.209 64.9178 188.241 65.9492C189.272 66.9807 190.671 67.5601 192.13 67.5601C193.589 67.5601 194.988 66.9807 196.019 65.9492C197.051 64.9178 197.63 63.5188 197.63 62.0601C197.59 59.6101 196.05 58.6601 192.11 58.6601Z" fill="#455A64"/>
<path d="M208.62 68.5601C206.895 68.5601 205.241 67.8756 204.02 66.6569C202.8 65.4382 202.113 63.785 202.11 62.0601C202.11 57.6401 206.67 57.6401 208.62 57.6401C210.57 57.6401 215.12 57.6401 215.12 62.0601C215.117 63.7832 214.432 65.435 213.213 66.6534C211.995 67.8718 210.343 68.5575 208.62 68.5601ZM208.62 58.6601C204.68 58.6601 203.14 59.6601 203.14 62.0601C203.14 63.5188 203.72 64.9178 204.751 65.9492C205.782 66.9807 207.181 67.5601 208.64 67.5601C210.099 67.5601 211.498 66.9807 212.529 65.9492C213.561 64.9178 214.14 63.5188 214.14 62.0601C214.1 59.6101 212.56 58.6601 208.62 58.6601Z" fill="#455A64"/>
<path d="M199.62 59.96L199.94 72.11L206.33 70.13L199.62 59.96Z" fill="#F28F8F"/>
<path d="M193.44 84.3102C188.8 83.7002 179.25 80.9602 177.76 77.1802C178.36 79.0905 179.529 80.7722 181.11 82.0002C183.96 84.4502 193.44 87.2002 193.44 87.2002V84.3102Z" fill="#F28F8F"/>
<path d="M193.67 54.06L189.43 56.65C189.096 56.0679 188.999 55.3795 189.159 54.7277C189.319 54.0759 189.724 53.5109 190.29 53.15C190.57 52.9802 190.881 52.869 191.205 52.8229C191.529 52.7769 191.859 52.797 192.175 52.882C192.491 52.9671 192.786 53.1153 193.043 53.3178C193.3 53.5203 193.513 53.7727 193.67 54.06Z" fill="#263238"/>
<path d="M210.92 56.94L206.2 55.29C206.291 54.9772 206.446 54.6864 206.654 54.4354C206.862 54.1845 207.119 53.9787 207.409 53.8307C207.699 53.6827 208.017 53.5957 208.342 53.5749C208.667 53.5542 208.993 53.6001 209.3 53.71C209.933 53.9375 210.454 54.3998 210.756 55.0011C211.058 55.6024 211.116 56.2966 210.92 56.94Z" fill="#263238"/>
<path d="M198.1 62.5802C198.032 62.5802 197.965 62.5667 197.903 62.5404C197.84 62.5142 197.783 62.4757 197.736 62.4273C197.688 62.3789 197.651 62.3215 197.626 62.2584C197.601 62.1954 197.589 62.128 197.59 62.0602C197.59 61.2302 199.23 60.6902 200.71 60.6902C202.19 60.6902 203.14 61.2302 203.14 62.0602C203.109 62.1688 203.043 62.2644 202.953 62.3325C202.863 62.4005 202.753 62.4374 202.64 62.4374C202.527 62.4374 202.417 62.4005 202.327 62.3325C202.237 62.2644 202.171 62.1688 202.14 62.0602C202.14 61.9602 201.63 61.7102 200.74 61.7102C200.024 61.6949 199.311 61.8171 198.64 62.0702C198.64 62.1398 198.626 62.2086 198.599 62.2725C198.571 62.3365 198.531 62.3941 198.48 62.4418C198.43 62.4896 198.37 62.5265 198.304 62.5503C198.239 62.5741 198.17 62.5843 198.1 62.5802Z" fill="#455A64"/>
<path d="M186.13 62.1402H186.07L174.64 61.1402C174.106 60.6108 173.47 60.1957 172.77 59.9202L186.19 61.1602C186.325 61.1777 186.447 61.2471 186.531 61.3536C186.615 61.4601 186.654 61.5952 186.64 61.7302C186.617 61.8475 186.553 61.9528 186.459 62.0277C186.366 62.1027 186.25 62.1425 186.13 62.1402Z" fill="#455A64"/>
<path d="M139.2 74.0601C142.94 69.0601 145.49 65.2901 148.9 61.0601C150.84 58.6301 152.08 56.8901 153.9 54.4001C155.18 52.6801 155.9 51.2301 157.36 50.7001C158.937 50.0538 160.359 49.0788 161.53 47.8401C162.25 47.0437 162.918 46.202 163.53 45.3201C165.673 42.4351 168.219 39.8724 171.09 37.7101C174.09 35.4501 177.44 33.7101 180.53 31.5601C182.37 30.2701 184.34 28.1301 182.1 26.1301C181.413 25.5515 180.591 25.1559 179.71 24.9801C174.26 23.8001 169.52 25.6701 164.19 27.0301C161.875 27.6079 159.611 28.3738 157.42 29.3201C156.343 29.7462 155.332 30.3255 154.42 31.0401C153.145 32.3258 152.1 33.8209 151.33 35.4601C149 39.6201 144 43.3401 140.5 46.6301C136.41 50.4801 132.75 54.0101 128.08 58.2501C123.88 62.0801 119.77 65.6001 115.92 69.7801C112.73 73.2301 113.92 75.9301 114.34 76.8701C116.94 82.2101 119.85 84.1301 123.34 87.4401C129.34 93.1701 150.09 109.66 156.96 115.11C158.436 116.269 159.595 117.783 160.33 119.51L161.65 122.56C169.49 124 174.72 112.23 168.23 98.0601C167.155 95.7687 165.513 93.7896 163.46 92.3101C155.26 86.3401 139.2 74.0601 139.2 74.0601Z" fill="#FFA8A7"/>
<path d="M139.2 74.0601C136.705 77.1298 133.379 79.4174 129.62 80.6501C129.62 80.6501 134.62 81.9301 141.47 75.7801L139.2 74.0601Z" fill="#F28F8F"/>
<path d="M240.86 146.91L239.58 145.81C239.389 145.684 239.171 145.605 238.943 145.579C238.715 145.553 238.485 145.581 238.27 145.66L224.38 149.44C223.68 149.673 223.039 150.055 222.501 150.559C221.962 151.063 221.539 151.677 221.26 152.36L211.26 181.19C211.14 181.425 211.092 181.691 211.124 181.953C211.157 182.215 211.266 182.461 211.44 182.66L212.76 183.8C212.952 183.933 213.174 184.016 213.405 184.044C213.637 184.072 213.872 184.043 214.09 183.96L228 180.18C228.7 179.947 229.341 179.565 229.879 179.061C230.418 178.557 230.841 177.943 231.12 177.26C233.12 171.59 239.12 154.1 241.12 148.43C241.36 147.72 241.24 147.18 240.86 146.91Z" fill="#455A64"/>
<path d="M212.57 182.3L222.57 153.47C222.848 152.788 223.271 152.174 223.81 151.672C224.348 151.169 224.99 150.79 225.69 150.56L239.57 146.78C240.86 146.43 241.57 147.17 241.11 148.43C239.11 154.1 233.11 171.59 231.11 177.26C230.831 177.943 230.408 178.557 229.869 179.061C229.331 179.565 228.69 179.947 227.99 180.18L214.11 184C212.83 184.3 212.14 183.56 212.57 182.3Z" fill="#BE16DE"/>
<path d="M224.18 151.36C223.458 151.907 222.898 152.64 222.56 153.48L212.56 182.3C212.445 182.529 212.398 182.786 212.423 183.04C212.447 183.295 212.544 183.538 212.7 183.74L211.46 182.68C211.282 182.484 211.169 182.238 211.135 181.975C211.101 181.712 211.148 181.445 211.27 181.21L221.27 152.38C221.586 151.596 222.099 150.907 222.76 150.38L224.18 151.36Z" fill="#37474F"/>
<path d="M237.05 160.05C236.05 162.98 232.58 164.94 226.84 166.3C221.1 167.66 217.93 173.75 218.84 175.6C219.75 177.45 229.03 179.18 232.74 178.65C236.45 178.12 240.17 172.76 241.3 171.1C242.43 169.44 243.73 157.86 242.54 156.27C241.35 154.68 238.84 154.93 238.84 154.93L237.05 160.05Z" fill="#F28F8F"/>
</svg>
